<?xml version="1.0" standalone="no"?>
<!DOCTYPE svg PUBLIC "-//W3C//DTD SVG 20010904//EN"
 "http://www.w3.org/TR/2001/REC-SVG-20010904/DTD/svg10.dtd">
<svg version="1.0" xmlns="http://www.w3.org/2000/svg"
 width="900.000000pt" height="900.000000pt" viewBox="0 0 900.000000 900.000000"
 preserveAspectRatio="xMidYMid meet">

<g transform="translate(0.000000,900.000000) scale(0.100000,-0.100000)"
fill="#000000" stroke="none">
<path d="M4507 8320 c-4 -14 -7 -54 -7 -90 0 -36 -4 -101 -10 -145 -8 -73 -24
-236 -50 -540 -6 -60 -14 -155 -20 -210 -5 -55 -14 -156 -20 -225 -6 -69 -17
-190 -25 -270 -8 -80 -19 -201 -25 -270 -5 -69 -14 -170 -20 -225 -5 -55 -14
-156 -20 -225 -6 -69 -17 -190 -25 -270 -8 -80 -19 -208 -25 -285 -6 -77 -16
-170 -21 -207 -5 -37 -9 -88 -9 -115 0 -67 -11 -123 -23 -123 -6 0 -60 33
-121 74 -140 93 -677 447 -945 623 -112 74 -206 132 -209 129 -3 -3 8 -25 25
-49 39 -55 210 -304 332 -482 52 -77 175 -257 273 -399 98 -143 175 -263 170
-268 -5 -5 -22 -2 -38 6 -16 7 -108 44 -204 81 -96 37 -184 71 -195 75 -11 5
-114 46 -230 91 -115 45 -307 119 -425 166 -118 46 -262 102 -320 124 -58 23
-114 45 -125 49 -11 5 -74 30 -140 55 -66 26 -158 62 -205 80 -279 111 -295
116 -288 95 3 -9 290 -202 1996 -1343 l534 -357 483 0 483 0 50 43 c56 48 526
472 617 556 33 31 101 92 150 136 49 44 166 150 260 235 271 245 552 499 650
587 169 151 210 191 203 198 -3 3 -26 -2 -50 -13 -23 -11 -108 -48 -188 -82
-80 -34 -210 -90 -290 -125 -118 -52 -648 -280 -765 -330 -16 -7 -52 -23 -80
-35 -27 -12 -66 -29 -85 -37 -19 -8 -44 -19 -55 -24 -179 -79 -221 -96 -228
-89 -6 5 156 437 212 565 40 91 141 351 141 364 0 9 -163 -147 -363 -347 -199
-199 -365 -362 -368 -362 -3 0 -11 51 -18 113 -6 61 -16 153 -21 202 -6 50
-16 151 -24 225 -8 74 -20 185 -26 245 -6 61 -15 148 -20 195 -5 47 -14 130
-20 185 -5 55 -15 145 -21 200 -21 200 -44 419 -58 570 -10 102 -19 183 -46
430 -8 77 -20 185 -25 240 -33 337 -59 567 -68 600 l-8 30 -7 -25z"/>
<path d="M1189 5167 c5 -14 49 -94 97 -178 48 -85 98 -174 112 -199 14 -25 75
-135 137 -245 62 -110 127 -227 145 -260 18 -33 36 -64 40 -70 4 -5 23 -39 42
-75 53 -96 84 -152 156 -280 36 -63 76 -135 90 -160 14 -25 62 -110 107 -190
44 -80 84 -153 88 -162 6 -17 106 -18 1864 -20 l1858 -3 136 -205 c110 -164
972 -1462 1556 -2342 58 -87 109 -158 114 -159 5 0 27 -1 49 -1 22 0 45 1 50
1 6 1 10 92 10 252 0 242 -1 253 -22 288 -24 40 -357 566 -393 621 -12 19
-125 197 -250 395 -125 198 -238 376 -250 395 -26 39 -460 724 -606 955 l-95
150 -1819 5 -1819 5 -265 286 c-147 157 -390 420 -541 584 -526 571 -582 630
-591 633 -6 2 -6 -6 0 -21z"/>
<path d="M6490 3670 c0 -6 103 -172 229 -368 126 -196 251 -391 277 -432 26
-41 66 -104 89 -140 66 -102 517 -807 636 -992 58 -92 109 -164 113 -161 3 3
6 86 6 183 l0 176 -106 174 c-59 96 -119 195 -134 220 -15 25 -63 104 -107
175 -83 136 -171 279 -498 815 -109 179 -205 333 -213 343 -13 15 -34 17 -154
17 -89 0 -138 -4 -138 -10z"/>
<path d="M2315 3040 c-3 -5 -1 -17 4 -27 6 -10 22 -45 36 -78 14 -33 31 -72
38 -88 l12 -28 1632 1 c897 0 1639 -3 1648 -6 15 -6 258 -368 1153 -1719 167
-253 308 -464 312 -468 8 -9 319 -12 327 -3 5 5 -94 158 -582 896 -111 168
-249 377 -307 465 -117 179 -422 642 -591 898 l-111 167 -1782 0 c-1127 0
-1785 -4 -1789 -10z"/>
</g>
</svg>
